<svg xmlns="http://www.w3.org/2000/svg" xmlns:xlink="http://www.w3.org/1999/xlink" contentStyleType="text/css" data-diagram-type="CLASS" height="514px" preserveAspectRatio="none" style="width:861px;height:514px;background:#FFFFFF;" version="1.1" viewBox="0 0 861 514" width="861px" zoomAndPan="magnify"><?plantuml 1.2026.3beta4?><defs/><g><!--class regulation--><g class="entity" data-qualified-name="regulation" data-source-line="1" id="ent0002"><rect fill="#F1F1F1" height="145.7813" rx="2.5" ry="2.5" style="stroke:#181818;stroke-width:0.5;" width="166.6357" x="7" y="163.89"/><ellipse cx="48.6621" cy="179.89" fill="#ADD1B2" rx="11" ry="11" style="stroke:#181818;stroke-width:1;"/><path d="M52.7714,185.89 L45.0527,185.89 L45.0527,173.4994 L52.7714,173.4994 L52.7714,175.6556 L47.5058,175.6556 L47.5058,178.3275 L52.2714,178.3275 L52.2714,180.4838 L47.5058,180.4838 L47.5058,183.7338 L52.7714,183.7338 L52.7714,185.89 Z " fill="#000000"/><text fill="#000000" font-family="sans-serif" font-size="14" lengthAdjust="spacing" textLength="75.3867" x="68.587" y="184.7367">Regulation</text><line style="stroke:#181818;stroke-width:0.5;" x1="8" x2="172.6357" y1="195.89" y2="195.89"/><g data-visibility-modifier="IE_MANDATORY"><ellipse cx="18" cy="209.5384" fill="#000000" rx="3" ry="3" style="stroke:#000000;stroke-width:1;"/></g><text fill="#000000" font-family="sans-serif" font-size="14" lengthAdjust="spacing" textLength="61.7969" x="27" y="212.8851">id : UUID</text><text fill="#000000" font-family="sans-serif" font-size="14" lengthAdjust="spacing" textLength="93.5088" x="27" y="229.182">name : string</text><text fill="#000000" font-family="sans-serif" font-size="14" lengthAdjust="spacing" textLength="117.6055" x="27" y="245.4789">authority : string</text><text fill="#000000" font-family="sans-serif" font-size="14" lengthAdjust="spacing" textLength="105.082" x="27" y="261.7757">version : string</text><text fill="#000000" font-family="sans-serif" font-size="14" lengthAdjust="spacing" textLength="131.6465" x="27" y="278.0726">description : string</text><text fill="#000000" font-family="sans-serif" font-size="14" lengthAdjust="spacing" textLength="140.6357" x="27" y="294.3695">control_ids : string[]</text><line style="stroke:#181818;stroke-width:0.5;" x1="8" x2="172.6357" y1="301.6713" y2="301.6713"/></g><!--class control--><g class="entity" data-qualified-name="control" data-source-line="10" id="ent0003"><rect fill="#F1F1F1" height="129.4844" rx="2.5" ry="2.5" style="stroke:#181818;stroke-width:0.5;" width="205.0264" x="208.8" y="172.04"/><ellipse cx="281.6062" cy="188.04" fill="#ADD1B2" rx="11" ry="11" style="stroke:#181818;stroke-width:1;"/><path d="M285.7155,194.04 L277.9968,194.04 L277.9968,181.6494 L285.7155,181.6494 L285.7155,183.8056 L280.4499,183.8056 L280.4499,186.4775 L285.2155,186.4775 L285.2155,188.6338 L280.4499,188.6338 L280.4499,191.8838 L285.7155,191.8838 L285.7155,194.04 Z " fill="#000000"/><text fill="#000000" font-family="sans-serif" font-size="14" lengthAdjust="spacing" textLength="50.9141" x="302.1062" y="192.8867">Control</text><line style="stroke:#181818;stroke-width:0.5;" x1="209.8" x2="412.8264" y1="204.04" y2="204.04"/><g data-visibility-modifier="IE_MANDATORY"><ellipse cx="219.8" cy="217.6884" fill="#000000" rx="3" ry="3" style="stroke:#000000;stroke-width:1;"/></g><text fill="#000000" font-family="sans-serif" font-size="14" lengthAdjust="spacing" textLength="61.7969" x="228.8" y="221.0351">id : UUID</text><text fill="#000000" font-family="sans-serif" font-size="14" lengthAdjust="spacing" textLength="179.0264" x="228.8" y="237.332">regulation_id : UUID «FK»</text><text fill="#000000" font-family="sans-serif" font-size="14" lengthAdjust="spacing" textLength="171.001" x="228.8" y="253.6289">component_ids : string[]</text><text fill="#000000" font-family="sans-serif" font-size="14" lengthAdjust="spacing" textLength="125.8838" x="228.8" y="269.9257">statement : string</text><text fill="#000000" font-family="sans-serif" font-size="14" lengthAdjust="spacing" textLength="116.04" x="228.8" y="286.2226">rationale : string</text><line style="stroke:#181818;stroke-width:0.5;" x1="209.8" x2="412.8264" y1="293.5244" y2="293.5244"/></g><!--class policy--><g class="entity" data-qualified-name="policy" data-source-line="18" id="ent0004"><rect fill="#F1F1F1" height="145.7813" rx="2.5" ry="2.5" style="stroke:#181818;stroke-width:0.5;" width="183.9922" x="662.32" y="163.89"/><ellipse cx="729.6813" cy="179.89" fill="#ADD1B2" rx="11" ry="11" style="stroke:#181818;stroke-width:1;"/><path d="M733.7907,185.89 L726.072,185.89 L726.072,173.4994 L733.7907,173.4994 L733.7907,175.6556 L728.5251,175.6556 L728.5251,178.3275 L733.2907,178.3275 L733.2907,180.4838 L728.5251,180.4838 L728.5251,183.7338 L733.7907,183.7338 L733.7907,185.89 Z " fill="#000000"/><text fill="#000000" font-family="sans-serif" font-size="14" lengthAdjust="spacing" textLength="40.7695" x="750.1813" y="184.7367">Policy</text><line style="stroke:#181818;stroke-width:0.5;" x1="663.32" x2="845.3122" y1="195.89" y2="195.89"/><g data-visibility-modifier="IE_MANDATORY"><ellipse cx="673.32" cy="209.5384" fill="#000000" rx="3" ry="3" style="stroke:#000000;stroke-width:1;"/></g><text fill="#000000" font-family="sans-serif" font-size="14" lengthAdjust="spacing" textLength="44.9326" x="682.32" y="212.8851">id : str</text><text fill="#000000" font-family="sans-serif" font-size="14" lengthAdjust="spacing" textLength="145.5986" x="682.32" y="229.182">plattform: aws|azure</text><text fill="#000000" font-family="sans-serif" font-size="14" lengthAdjust="spacing" textLength="157.9922" x="682.32" y="245.4789">origin: builtin | custom</text><text fill="#000000" font-family="sans-serif" font-size="14" lengthAdjust="spacing" textLength="93.5088" x="682.32" y="261.7757">name : string</text><text fill="#000000" font-family="sans-serif" font-size="14" lengthAdjust="spacing" textLength="131.6465" x="682.32" y="278.0726">description : string</text><text fill="#000000" font-family="sans-serif" font-size="14" lengthAdjust="spacing" textLength="107.167" x="682.32" y="294.3695">artifact : object</text><line style="stroke:#181818;stroke-width:0.5;" x1="663.32" x2="845.3122" y1="301.6713" y2="301.6713"/></g><!--class component_profile--><g class="entity" data-qualified-name="component_profile" data-source-line="27" id="ent0005"><rect fill="#F1F1F1" height="129.4844" rx="2.5" ry="2.5" style="stroke:#181818;stroke-width:0.5;" width="178.7832" x="448.93" y="172.04"/><ellipse cx="470.4185" cy="188.04" fill="#ADD1B2" rx="11" ry="11" style="stroke:#181818;stroke-width:1;"/><path d="M474.5279,194.04 L466.8092,194.04 L466.8092,181.6494 L474.5279,181.6494 L474.5279,183.8056 L469.2623,183.8056 L469.2623,186.4775 L474.0279,186.4775 L474.0279,188.6338 L469.2623,188.6338 L469.2623,191.8838 L474.5279,191.8838 L474.5279,194.04 Z " fill="#000000"/><text fill="#000000" font-family="sans-serif" font-size="14" lengthAdjust="spacing" textLength="132.3643" x="485.8604" y="192.8867">Component_Profile</text><line style="stroke:#181818;stroke-width:0.5;" x1="449.93" x2="626.7132" y1="204.04" y2="204.04"/><g data-visibility-modifier="IE_MANDATORY"><ellipse cx="459.93" cy="217.6884" fill="#000000" rx="3" ry="3" style="stroke:#000000;stroke-width:1;"/></g><text fill="#000000" font-family="sans-serif" font-size="14" lengthAdjust="spacing" textLength="44.9326" x="468.93" y="221.0351">id : str</text><text fill="#000000" font-family="sans-serif" font-size="14" lengthAdjust="spacing" textLength="152.7832" x="468.93" y="237.332">component_id : string</text><text fill="#000000" font-family="sans-serif" font-size="14" lengthAdjust="spacing" textLength="131.6465" x="468.93" y="253.6289">description : string</text><text fill="#000000" font-family="sans-serif" font-size="14" lengthAdjust="spacing" textLength="147.9297" x="468.93" y="269.9257">controls_ids : string[]</text><text fill="#000000" font-family="sans-serif" font-size="14" lengthAdjust="spacing" textLength="133.0137" x="468.93" y="286.2226">policy_ids : string[]</text><line style="stroke:#181818;stroke-width:0.5;" x1="449.93" x2="626.7132" y1="293.5244" y2="293.5244"/></g><!--class component--><g class="entity" data-qualified-name="component" data-source-line="35" id="ent0006"><rect fill="#F1F1F1" height="129.4844" rx="2.5" ry="2.5" style="stroke:#181818;stroke-width:0.5;" width="184.8057" x="445.92" y="369.68"/><ellipse cx="493.4332" cy="385.68" fill="#ADD1B2" rx="11" ry="11" style="stroke:#181818;stroke-width:1;"/><path d="M497.5426,391.68 L489.8238,391.68 L489.8238,379.2894 L497.5426,379.2894 L497.5426,381.4456 L492.2769,381.4456 L492.2769,384.1175 L497.0426,384.1175 L497.0426,386.2738 L492.2769,386.2738 L492.2769,389.5238 L497.5426,389.5238 L497.5426,391.68 Z " fill="#000000"/><text fill="#000000" font-family="sans-serif" font-size="14" lengthAdjust="spacing" textLength="81.2793" x="513.9332" y="390.5267">Component</text><line style="stroke:#181818;stroke-width:0.5;" x1="446.92" x2="629.7257" y1="401.68" y2="401.68"/><g data-visibility-modifier="IE_MANDATORY"><ellipse cx="456.92" cy="415.3284" fill="#000000" rx="3" ry="3" style="stroke:#000000;stroke-width:1;"/></g><text fill="#000000" font-family="sans-serif" font-size="14" lengthAdjust="spacing" textLength="66.582" x="465.92" y="418.6751">id : string</text><text fill="#000000" font-family="sans-serif" font-size="14" lengthAdjust="spacing" textLength="118.1113" x="465.92" y="434.972">profile_id : string</text><text fill="#000000" font-family="sans-serif" font-size="14" lengthAdjust="spacing" textLength="93.5088" x="465.92" y="451.2689">name : string</text><text fill="#000000" font-family="sans-serif" font-size="14" lengthAdjust="spacing" textLength="131.6465" x="465.92" y="467.5657">description : string</text><text fill="#000000" font-family="sans-serif" font-size="14" lengthAdjust="spacing" textLength="158.8057" x="465.92" y="483.8626">profile_names: string[]</text><line style="stroke:#181818;stroke-width:0.5;" x1="446.92" x2="629.7257" y1="491.1644" y2="491.1644"/></g><!--class lz--><g class="entity" data-qualified-name="lz" data-source-line="43" id="ent0007"><rect fill="#F1F1F1" height="96.8906" rx="2.5" ry="2.5" style="stroke:#000000;stroke-width:1;stroke-dasharray:7,7;" width="224.3037" x="426.17" y="7"/><ellipse cx="486.1314" cy="23" fill="#ADD1B2" rx="11" ry="11" style="stroke:#181818;stroke-width:1;"/><path d="M490.2408,29 L482.5221,29 L482.5221,16.6094 L490.2408,16.6094 L490.2408,18.7656 L484.9752,18.7656 L484.9752,21.4375 L489.7408,21.4375 L489.7408,23.5938 L484.9752,23.5938 L484.9752,26.8438 L490.2408,26.8438 L490.2408,29 Z " fill="#000000"/><text fill="#000000" font-family="sans-serif" font-size="14" lengthAdjust="spacing" textLength="95.8809" x="506.6314" y="27.8467">Landing Zone</text><line style="stroke:#000000;stroke-width:1;stroke-dasharray:7,7;" x1="427.17" x2="649.4737" y1="39" y2="39"/><g data-visibility-modifier="IE_MANDATORY"><ellipse cx="437.17" cy="52.6484" fill="#000000" rx="3" ry="3" style="stroke:#000000;stroke-width:1;"/></g><text fill="#000000" font-family="sans-serif" font-size="14" lengthAdjust="spacing" textLength="62.1318" x="446.17" y="55.9951">id: string</text><text fill="#000000" font-family="sans-serif" font-size="14" lengthAdjust="spacing" textLength="87.2676" x="446.17" y="72.292">cloud: string</text><text fill="#000000" font-family="sans-serif" font-size="14" lengthAdjust="spacing" textLength="198.3037" x="446.17" y="88.5889">component_profiles: string[]</text><line style="stroke:#000000;stroke-width:1;stroke-dasharray:7,7;" x1="427.17" x2="649.4737" y1="95.8906" y2="95.8906"/></g><!--link regulation to control--><g class="link" data-entity-1="ent0002" data-entity-2="ent0003" data-link-type="crowfoot" data-source-line="49" id="lnk8"><path codeLine="49" d="M182.06,236.78 C193.49,236.78 178.93,236.78 190.37,236.78" fill="none" id="regulation-control" style="stroke:#181818;stroke-width:1;"/><line style="stroke:#181818;stroke-width:1;" x1="178.06" x2="178.06" y1="240.78" y2="232.78"/><line style="stroke:#181818;stroke-width:1;" x1="181.06" x2="181.06" y1="240.78" y2="232.78"/><line style="stroke:#181818;stroke-width:1;" x1="182.06" x2="174.06" y1="236.78" y2="236.78"/><line style="stroke:#181818;stroke-width:1;" x1="200.37" x2="208.37" y1="236.78" y2="230.78"/><line style="stroke:#181818;stroke-width:1;" x1="200.37" x2="208.37" y1="236.78" y2="242.78"/><line style="stroke:#181818;stroke-width:1;" x1="200.37" x2="208.37" y1="236.78" y2="236.78"/><ellipse cx="194.37" cy="236.78" fill="none" rx="4" ry="4" style="stroke:#181818;stroke-width:1;"/></g><!--link component_profile to component--><g class="link" data-entity-1="ent0005" data-entity-2="ent0006" data-link-type="crowfoot" data-source-line="50" id="lnk9"><path codeLine="50" d="M538.32,309.84 C538.32,331.46 538.32,329.59 538.32,351.22" fill="none" id="component_profile-component" style="stroke:#181818;stroke-width:1;"/><line style="stroke:#181818;stroke-width:1;" x1="534.32" x2="542.32" y1="305.84" y2="305.84"/><line style="stroke:#181818;stroke-width:1;" x1="534.32" x2="542.32" y1="308.84" y2="308.84"/><line style="stroke:#181818;stroke-width:1;" x1="538.32" x2="538.32" y1="309.84" y2="301.84"/><line style="stroke:#181818;stroke-width:1;" x1="538.32" x2="544.32" y1="361.22" y2="369.22"/><line style="stroke:#181818;stroke-width:1;" x1="538.32" x2="532.32" y1="361.22" y2="369.22"/><line style="stroke:#181818;stroke-width:1;" x1="538.32" x2="538.32" y1="361.22" y2="369.22"/><ellipse cx="538.32" cy="355.22" fill="none" rx="4" ry="4" style="stroke:#181818;stroke-width:1;"/></g><!--link control to component_profile--><g class="link" data-entity-1="ent0003" data-entity-2="ent0005" data-link-type="crowfoot" data-source-line="51" id="lnk10"><path codeLine="51" d="M432.18,236.78 C443.65,236.78 419.13,236.78 430.61,236.78" fill="none" id="control-component_profile" style="stroke:#181818;stroke-width:1;"/><line style="stroke:#181818;stroke-width:1;" x1="422.18" x2="414.18" y1="236.78" y2="242.78"/><line style="stroke:#181818;stroke-width:1;" x1="422.18" x2="414.18" y1="236.78" y2="230.78"/><line style="stroke:#181818;stroke-width:1;" x1="422.18" x2="414.18" y1="236.78" y2="236.78"/><ellipse cx="428.18" cy="236.78" fill="none" rx="4" ry="4" style="stroke:#181818;stroke-width:1;"/><line style="stroke:#181818;stroke-width:1;" x1="440.61" x2="448.61" y1="236.78" y2="230.78"/><line style="stroke:#181818;stroke-width:1;" x1="440.61" x2="448.61" y1="236.78" y2="242.78"/><line style="stroke:#181818;stroke-width:1;" x1="440.61" x2="448.61" y1="236.78" y2="236.78"/><ellipse cx="434.61" cy="236.78" fill="none" rx="4" ry="4" style="stroke:#181818;stroke-width:1;"/></g><!--link component_profile to policy--><g class="link" data-entity-1="ent0005" data-entity-2="ent0004" data-link-type="crowfoot" data-source-line="52" id="lnk12"><path codeLine="52" d="M646.18,236.78 C657.51,236.78 632.84,236.78 644.18,236.78" fill="none" id="component_profile-policy" style="stroke:#181818;stroke-width:1;"/><line style="stroke:#181818;stroke-width:1;" x1="636.18" x2="628.18" y1="236.78" y2="242.78"/><line style="stroke:#181818;stroke-width:1;" x1="636.18" x2="628.18" y1="236.78" y2="230.78"/><line style="stroke:#181818;stroke-width:1;" x1="636.18" x2="628.18" y1="236.78" y2="236.78"/><ellipse cx="642.18" cy="236.78" fill="none" rx="4" ry="4" style="stroke:#181818;stroke-width:1;"/><line style="stroke:#181818;stroke-width:1;" x1="654.18" x2="662.18" y1="236.78" y2="230.78"/><line style="stroke:#181818;stroke-width:1;" x1="654.18" x2="662.18" y1="236.78" y2="242.78"/><line style="stroke:#181818;stroke-width:1;" x1="654.18" x2="662.18" y1="236.78" y2="236.78"/><ellipse cx="648.18" cy="236.78" fill="none" rx="4" ry="4" style="stroke:#181818;stroke-width:1;"/></g><!--link lz to component_profile--><g class="link" data-entity-1="ent0007" data-entity-2="ent0005" data-link-type="crowfoot" data-source-line="53" id="lnk14"><path codeLine="53" d="M538.32,122.04 C538.32,142.79 538.32,131.43 538.32,153.76" fill="none" id="lz-component_profile" style="stroke:#181818;stroke-width:1;"/><line style="stroke:#181818;stroke-width:1;" x1="538.32" x2="532.32" y1="112.04" y2="104.04"/><line style="stroke:#181818;stroke-width:1;" x1="538.32" x2="544.32" y1="112.04" y2="104.04"/><line style="stroke:#181818;stroke-width:1;" x1="538.32" x2="538.32" y1="112.04" y2="104.04"/><ellipse cx="538.32" cy="118.04" fill="none" rx="4" ry="4" style="stroke:#181818;stroke-width:1;"/><line style="stroke:#181818;stroke-width:1;" x1="538.32" x2="544.32" y1="163.76" y2="171.76"/><line style="stroke:#181818;stroke-width:1;" x1="538.32" x2="532.32" y1="163.76" y2="171.76"/><line style="stroke:#181818;stroke-width:1;" x1="538.32" x2="538.32" y1="163.76" y2="171.76"/><ellipse cx="538.32" cy="157.76" fill="none" rx="4" ry="4" style="stroke:#181818;stroke-width:1;"/></g><?plantuml-src ZPDDJiCm48NtFiMex93A0QAg6n0IWaM5r0q8LQxZj0R7Zkmng6rwToP_nKbQr9td-OtdoxCZ3IhSmUHLReBcgAoP0FVWJYKS6C2jIY61vVBfWGh3SqcLHwVCXceUS6jTTKeaValdg-v8IgKNJXKua8KrwAnUgTIVvFSFTcHCjcptZQC6QzrZgZ_YrKc6sUpnUJwlX-I5DNJWS0pGagFCQIk6SlL9N4SV6W4jh5PYL_CKzJB28JUj2qB1pBey0VxZIxuFJf9CCMsKIM0Tb4Pbe0GHFDhyJAeNqk8ELSP51MlNdr9WFwZkAnVEPahBDh9EBHfrH1kdS_sD-N6MJHh_NcKxgK_M9sgcjB0n4boP4qJjbT-VXtdX9gtSRyHGy-Wzt6Xbv5tA_LQcoLfpyTMnnG5e6thrCE71mEXlAiiflO4jJksXov6DBuXSZQ7TODspFzguVT36siT89Ysp2vxnCBA7eZBh_Iy0?></g></svg>