<svg xmlns="http://www.w3.org/2000/svg" xmlns:xlink="http://www.w3.org/1999/xlink" contentStyleType="text/css" data-diagram-type="SEQUENCE" height="758px" preserveAspectRatio="none" style="width:1014px;height:758px;background:#FFFFFF;" version="1.1" viewBox="0 0 1014 758" width="1014px" zoomAndPan="magnify"><?plantuml 1.2026.3beta4?><defs/><g><g><title>Traceability</title><rect fill="#FFFFFF" height="349.5938" style="stroke:#181818;stroke-width:1;" width="10" x="398.5957" y="189.2891"/></g><g><title>Traceability</title><rect fill="#FFFFFF" height="71.2656" style="stroke:#181818;stroke-width:1;" width="10" x="398.5957" y="568.0156"/></g><rect fill="none" height="220.0625" style="stroke:#000000;stroke-width:1.5;" width="988.5894" x="10" y="290.6875"/><g class="participant-lifeline" data-entity-uid="part1" data-qualified-name="cloud" id="part1-lifeline"><g><title>Cloud</title><rect fill="#000000" fill-opacity="0.00000" height="557.3906" width="8" x="52.0972" y="99.8906"/><line style="stroke:#181818;stroke-width:0.5;stroke-dasharray:5,5;" x1="56" x2="56" y1="99.8906" y2="657.2813"/></g></g><g class="participant-lifeline" data-entity-uid="part2" data-qualified-name="project" id="part2-lifeline"><g><title>Project</title><rect fill="#000000" fill-opacity="0.00000" height="557.3906" width="8" x="131.0649" y="99.8906"/><line style="stroke:#181818;stroke-width:0.5;stroke-dasharray:5,5;" x1="134.1943" x2="134.1943" y1="99.8906" y2="657.2813"/></g></g><g class="participant-lifeline" data-entity-uid="part3" data-qualified-name="trace" id="part3-lifeline"><g><title>Traceability</title><rect fill="#000000" fill-opacity="0.00000" height="557.3906" width="8" x="399.5957" y="99.8906"/><line style="stroke:#181818;stroke-width:0.5;stroke-dasharray:5,5;" x1="403.5425" x2="403.5425" y1="99.8906" y2="657.2813"/></g></g><g class="participant-lifeline" data-entity-uid="part4" data-qualified-name="evidence" id="part4-lifeline"><g><title>Evidence</title><rect fill="#000000" fill-opacity="0.00000" height="557.3906" width="8" x="627.6816" y="99.8906"/><line style="stroke:#181818;stroke-width:0.5;stroke-dasharray:5,5;" x1="630.8296" x2="630.8296" y1="99.8906" y2="657.2813"/></g></g><g class="participant-lifeline" data-entity-uid="part5" data-qualified-name="comp" id="part5-lifeline"><g><title>Compliance</title><rect fill="#000000" fill-opacity="0.00000" height="557.3906" width="8" x="720.7373" y="99.8906"/><line style="stroke:#181818;stroke-width:0.5;stroke-dasharray:5,5;" x1="724.5337" x2="724.5337" y1="99.8906" y2="657.2813"/></g></g><g class="participant-lifeline" data-entity-uid="part6" data-qualified-name="decision" id="part6-lifeline"><g><title>Governance</title><rect fill="#000000" fill-opacity="0.00000" height="557.3906" width="8" x="820.293" y="99.8906"/><line style="stroke:#181818;stroke-width:0.5;stroke-dasharray:5,5;" x1="823.9409" x2="823.9409" y1="99.8906" y2="657.2813"/></g></g><g class="participant-lifeline" data-entity-uid="part7" data-qualified-name="config" id="part7-lifeline"><g><title>Governance</title><rect fill="#000000" fill-opacity="0.00000" height="557.3906" width="8" x="930.1172" y="99.8906"/><line style="stroke:#181818;stroke-width:0.5;stroke-dasharray:5,5;" x1="933.645" x2="933.645" y1="99.8906" y2="657.2813"/></g></g><g class="participant participant-head" data-entity-uid="part1" data-qualified-name="cloud" id="part1-head"><rect fill="#E2E2F0" height="62.8906" rx="2.5" ry="2.5" style="stroke:#181818;stroke-width:0.5;" width="72.1943" x="20" y="36"/><text fill="#000000" font-family="sans-serif" font-size="14" lengthAdjust="spacing" textLength="39.9902" x="36.1021" y="55.9951">Cloud</text><text fill="#000000" font-family="sans-serif" font-size="14" lengthAdjust="spacing" textLength="58.1943" x="27" y="72.292">Provider</text><text fill="#000000" font-family="sans-serif" font-size="14" lengthAdjust="spacing" textLength="22.1484" x="45.0229" y="88.5889">API</text></g><g class="participant participant-tail" data-entity-uid="part1" data-qualified-name="cloud" id="part1-tail"><rect fill="#E2E2F0" height="62.8906" rx="2.5" ry="2.5" style="stroke:#181818;stroke-width:0.5;" width="72.1943" x="20" y="656.2813"/><text fill="#000000" font-family="sans-serif" font-size="14" lengthAdjust="spacing" textLength="39.9902" x="36.1021" y="676.2764">Cloud</text><text fill="#000000" font-family="sans-serif" font-size="14" lengthAdjust="spacing" textLength="58.1943" x="27" y="692.5732">Provider</text><text fill="#000000" font-family="sans-serif" font-size="14" lengthAdjust="spacing" textLength="22.1484" x="45.0229" y="708.8701">API</text></g><g class="participant participant-head" data-entity-uid="part2" data-qualified-name="project" id="part2-head"><rect fill="#E2E2F0" height="46.5938" rx="2.5" ry="2.5" style="stroke:#181818;stroke-width:0.5;" width="65.7412" x="102.1943" y="52.2969"/><text fill="#000000" font-family="sans-serif" font-size="14" lengthAdjust="spacing" textLength="48.4531" x="110.8384" y="72.292">Project</text><text fill="#000000" font-family="sans-serif" font-size="14" lengthAdjust="spacing" textLength="51.7412" x="109.1943" y="88.5889">Service</text></g><g class="participant participant-tail" data-entity-uid="part2" data-qualified-name="project" id="part2-tail"><rect fill="#E2E2F0" height="46.5938" rx="2.5" ry="2.5" style="stroke:#181818;stroke-width:0.5;" width="65.7412" x="102.1943" y="656.2813"/><text fill="#000000" font-family="sans-serif" font-size="14" lengthAdjust="spacing" textLength="48.4531" x="110.8384" y="676.2764">Project</text><text fill="#000000" font-family="sans-serif" font-size="14" lengthAdjust="spacing" textLength="51.7412" x="109.1943" y="692.5732">Service</text></g><g class="participant participant-head" data-entity-uid="part3" data-qualified-name="trace" id="part3-head"><rect fill="#E2E2F0" height="46.5938" rx="2.5" ry="2.5" style="stroke:#181818;stroke-width:0.5;" width="96.1064" x="355.5425" y="52.2969"/><text fill="#000000" font-family="sans-serif" font-size="14" lengthAdjust="spacing" textLength="82.1064" x="362.5425" y="72.292">Traceability</text><text fill="#000000" font-family="sans-serif" font-size="14" lengthAdjust="spacing" textLength="51.7412" x="377.7251" y="88.5889">Service</text></g><g class="participant participant-tail" data-entity-uid="part3" data-qualified-name="trace" id="part3-tail"><rect fill="#E2E2F0" height="46.5938" rx="2.5" ry="2.5" style="stroke:#181818;stroke-width:0.5;" width="96.1064" x="355.5425" y="656.2813"/><text fill="#000000" font-family="sans-serif" font-size="14" lengthAdjust="spacing" textLength="82.1064" x="362.5425" y="676.2764">Traceability</text><text fill="#000000" font-family="sans-serif" font-size="14" lengthAdjust="spacing" textLength="51.7412" x="377.7251" y="692.5732">Service</text></g><g class="participant participant-head" data-entity-uid="part4" data-qualified-name="evidence" id="part4-head"><rect fill="#E2E2F0" height="46.5938" rx="2.5" ry="2.5" style="stroke:#181818;stroke-width:0.5;" width="77.7041" x="592.8296" y="52.2969"/><text fill="#000000" font-family="sans-serif" font-size="14" lengthAdjust="spacing" textLength="63.7041" x="599.8296" y="72.292">Evidence</text><text fill="#000000" font-family="sans-serif" font-size="14" lengthAdjust="spacing" textLength="51.7412" x="605.811" y="88.5889">Service</text></g><g class="participant participant-tail" data-entity-uid="part4" data-qualified-name="evidence" id="part4-tail"><rect fill="#E2E2F0" height="46.5938" rx="2.5" ry="2.5" style="stroke:#181818;stroke-width:0.5;" width="77.7041" x="592.8296" y="656.2813"/><text fill="#000000" font-family="sans-serif" font-size="14" lengthAdjust="spacing" textLength="63.7041" x="599.8296" y="676.2764">Evidence</text><text fill="#000000" font-family="sans-serif" font-size="14" lengthAdjust="spacing" textLength="51.7412" x="605.811" y="692.5732">Service</text></g><g class="participant participant-head" data-entity-uid="part5" data-qualified-name="comp" id="part5-head"><text fill="#000000" font-family="sans-serif" font-size="14" lengthAdjust="spacing" textLength="82.4072" x="680.5337" y="80.292">Compliance</text><text fill="#000000" font-family="sans-serif" font-size="14" lengthAdjust="spacing" textLength="46.833" x="698.3208" y="96.5889">Officer</text><ellipse cx="724.7373" cy="15.7969" fill="#E2E2F0" rx="8" ry="8" style="stroke:#181818;stroke-width:0.5;"/><path d="M724.7373,23.7969 L724.7373,50.7969 M711.7373,31.7969 L737.7373,31.7969 M724.7373,50.7969 L711.7373,65.7969 M724.7373,50.7969 L737.7373,65.7969" fill="none" style="stroke:#181818;stroke-width:0.5;"/></g><g class="participant participant-tail" data-entity-uid="part5" data-qualified-name="comp" id="part5-tail"><text fill="#000000" font-family="sans-serif" font-size="14" lengthAdjust="spacing" textLength="82.4072" x="680.5337" y="669.2764">Compliance</text><text fill="#000000" font-family="sans-serif" font-size="14" lengthAdjust="spacing" textLength="46.833" x="698.3208" y="685.5732">Officer</text><ellipse cx="724.7373" cy="697.375" fill="#E2E2F0" rx="8" ry="8" style="stroke:#181818;stroke-width:0.5;"/><path d="M724.7373,705.375 L724.7373,732.375 M711.7373,713.375 L737.7373,713.375 M724.7373,732.375 L711.7373,747.375 M724.7373,732.375 L737.7373,747.375" fill="none" style="stroke:#181818;stroke-width:0.5;"/></g><g class="participant participant-head" data-entity-uid="part6" data-qualified-name="decision" id="part6-head"><text fill="#000000" font-family="sans-serif" font-size="14" lengthAdjust="spacing" textLength="84.7041" x="778.9409" y="63.9951">Governance</text><text fill="#000000" font-family="sans-serif" font-size="14" lengthAdjust="spacing" textLength="59.6025" x="791.4917" y="80.292">Decision</text><text fill="#000000" font-family="sans-serif" font-size="14" lengthAdjust="spacing" textLength="37.3105" x="802.6377" y="96.5889">Store</text><path d="M806.293,15 C806.293,5 824.293,5 824.293,5 C824.293,5 842.293,5 842.293,15 L842.293,41 C842.293,51 824.293,51 824.293,51 C824.293,51 806.293,51 806.293,41 L806.293,15" fill="#E2E2F0" style="stroke:#181818;stroke-width:0.5;"/><path d="M806.293,15 C806.293,25 824.293,25 824.293,25 C824.293,25 842.293,25 842.293,15" fill="none" style="stroke:#181818;stroke-width:0.5;"/></g><g class="participant participant-tail" data-entity-uid="part6" data-qualified-name="decision" id="part6-tail"><text fill="#000000" font-family="sans-serif" font-size="14" lengthAdjust="spacing" textLength="84.7041" x="778.9409" y="669.2764">Governance</text><text fill="#000000" font-family="sans-serif" font-size="14" lengthAdjust="spacing" textLength="59.6025" x="791.4917" y="685.5732">Decision</text><text fill="#000000" font-family="sans-serif" font-size="14" lengthAdjust="spacing" textLength="37.3105" x="802.6377" y="701.8701">Store</text><path d="M806.293,715.1719 C806.293,705.1719 824.293,705.1719 824.293,705.1719 C824.293,705.1719 842.293,705.1719 842.293,715.1719 L842.293,741.1719 C842.293,751.1719 824.293,751.1719 824.293,751.1719 C824.293,751.1719 806.293,751.1719 806.293,741.1719 L806.293,715.1719" fill="#E2E2F0" style="stroke:#181818;stroke-width:0.5;"/><path d="M806.293,715.1719 C806.293,725.1719 824.293,725.1719 824.293,725.1719 C824.293,725.1719 842.293,725.1719 842.293,715.1719" fill="none" style="stroke:#181818;stroke-width:0.5;"/></g><g class="participant participant-head" data-entity-uid="part7" data-qualified-name="config" id="part7-head"><rect fill="#E2E2F0" height="62.8906" rx="2.5" ry="2.5" style="stroke:#181818;stroke-width:0.5;" width="108.9443" x="879.645" y="36"/><text fill="#000000" font-family="sans-serif" font-size="14" lengthAdjust="spacing" textLength="84.7041" x="891.7651" y="55.9951">Governance</text><text fill="#000000" font-family="sans-serif" font-size="14" lengthAdjust="spacing" textLength="94.9443" x="886.645" y="72.292">Configuration</text><text fill="#000000" font-family="sans-serif" font-size="14" lengthAdjust="spacing" textLength="51.7412" x="908.2466" y="88.5889">Service</text></g><g class="participant participant-tail" data-entity-uid="part7" data-qualified-name="config" id="part7-tail"><rect fill="#E2E2F0" height="62.8906" rx="2.5" ry="2.5" style="stroke:#181818;stroke-width:0.5;" width="108.9443" x="879.645" y="656.2813"/><text fill="#000000" font-family="sans-serif" font-size="14" lengthAdjust="spacing" textLength="84.7041" x="891.7651" y="676.2764">Governance</text><text fill="#000000" font-family="sans-serif" font-size="14" lengthAdjust="spacing" textLength="94.9443" x="886.645" y="692.5732">Configuration</text><text fill="#000000" font-family="sans-serif" font-size="14" lengthAdjust="spacing" textLength="51.7412" x="908.2466" y="708.8701">Service</text></g><g><title>Traceability</title><rect fill="#FFFFFF" height="349.5938" style="stroke:#181818;stroke-width:1;" width="10" x="398.5957" y="189.2891"/></g><g><title>Traceability</title><rect fill="#FFFFFF" height="71.2656" style="stroke:#181818;stroke-width:1;" width="10" x="398.5957" y="568.0156"/></g><rect fill="#EEEEEE" height="3" style="stroke:#EEEEEE;stroke-width:1;" width="1008.5894" x="0" y="130.457"/><line style="stroke:#000000;stroke-width:1;" x1="0" x2="1008.5894" y1="130.457" y2="130.457"/><line style="stroke:#000000;stroke-width:1;" x1="0" x2="1008.5894" y1="133.457" y2="133.457"/><rect fill="#EEEEEE" height="23.1328" style="stroke:#000000;stroke-width:2;" width="478.147" x="265.2212" y="119.8906"/><text fill="#000000" font-family="sans-serif" font-size="13" font-weight="bold" lengthAdjust="spacing" textLength="459.6211" x="271.2212" y="135.9575">Verify compliance (Scope of UC 06 - Variant 1: Control-centric)</text><g class="message" data-entity-1="part3" data-entity-2="part2" id="msg1"><polygon fill="#181818" points="146.0649,185.2891,136.0649,189.2891,146.0649,193.2891,142.0649,189.2891" style="stroke:#181818;stroke-width:1;"/><line style="stroke:#181818;stroke-width:1;stroke-dasharray:2,2;" x1="140.0649" x2="397.5957" y1="189.2891" y2="189.2891"/><text fill="#000000" font-family="sans-serif" font-size="13" lengthAdjust="spacing" textLength="124.1221" x="152.0649" y="169.0903">Get LZ account IDs</text><text fill="#000000" font-family="sans-serif" font-size="13" lengthAdjust="spacing" textLength="89.6924" x="152.0649" y="184.2231">of Foundation</text></g><g class="message" data-entity-1="part3" data-entity-2="part6" id="msg2"><polygon fill="#181818" points="812.293,214.4219,822.293,218.4219,812.293,222.4219,816.293,218.4219" style="stroke:#181818;stroke-width:1;"/><line style="stroke:#181818;stroke-width:1;stroke-dasharray:2,2;" x1="408.5957" x2="818.293" y1="218.4219" y2="218.4219"/><text fill="#000000" font-family="sans-serif" font-size="13" lengthAdjust="spacing" textLength="179.9941" x="415.5957" y="213.356">get Decision for Foundation</text></g><g class="message" data-entity-1="part3" data-entity-2="part3" id="msg3"><line style="stroke:#181818;stroke-width:1;stroke-dasharray:2,2;" x1="408.5957" x2="450.5957" y1="262.6875" y2="262.6875"/><line style="stroke:#181818;stroke-width:1;stroke-dasharray:2,2;" x1="450.5957" x2="450.5957" y1="262.6875" y2="275.6875"/><line style="stroke:#181818;stroke-width:1;stroke-dasharray:2,2;" x1="409.5957" x2="450.5957" y1="275.6875" y2="275.6875"/><polygon fill="#181818" points="419.5957,271.6875,409.5957,275.6875,419.5957,279.6875,415.5957,275.6875" style="stroke:#181818;stroke-width:1;"/><text fill="#000000" font-family="sans-serif" font-size="13" lengthAdjust="spacing" textLength="97.3984" x="415.5957" y="242.4888">Get control IDs</text><text fill="#000000" font-family="sans-serif" font-size="13" lengthAdjust="spacing" textLength="90.0161" x="415.5957" y="257.6216">from Decision</text></g><path d="M10,290.6875 L86.624,290.6875 L86.624,297.8203 L76.624,307.8203 L10,307.8203 L10,290.6875" fill="#EEEEEE" style="stroke:#000000;stroke-width:1.5;"/><rect fill="none" height="220.0625" style="stroke:#000000;stroke-width:1.5;" width="988.5894" x="10" y="290.6875"/><text fill="#000000" font-family="sans-serif" font-size="13" font-weight="bold" lengthAdjust="spacing" textLength="31.624" x="25" y="303.7544">loop</text><text fill="#000000" font-family="sans-serif" font-size="11" font-weight="bold" lengthAdjust="spacing" textLength="79.127" x="101.624" y="302.8979">[Control IDs]</text><g class="message" data-entity-1="part3" data-entity-2="part7" id="msg4"><polygon fill="#181818" points="922.1172,340.0859,932.1172,344.0859,922.1172,348.0859,926.1172,344.0859" style="stroke:#181818;stroke-width:1;"/><line style="stroke:#181818;stroke-width:1;stroke-dasharray:2,2;" x1="408.5957" x2="928.1172" y1="344.0859" y2="344.0859"/><text fill="#000000" font-family="sans-serif" font-size="13" lengthAdjust="spacing" textLength="96.4463" x="415.5957" y="323.8872">get policies for</text><text fill="#000000" font-family="sans-serif" font-size="13" lengthAdjust="spacing" textLength="63.3242" x="415.5957" y="339.02">control ID</text></g><g class="message" data-entity-1="part7" data-entity-2="part3" id="msg5"><polygon fill="#181818" points="419.5957,369.2188,409.5957,373.2188,419.5957,377.2188,415.5957,373.2188" style="stroke:#181818;stroke-width:1;"/><line style="stroke:#181818;stroke-width:1;stroke-dasharray:2,2;" x1="413.5957" x2="933.1172" y1="373.2188" y2="373.2188"/><text fill="#000000" font-family="sans-serif" font-size="13" lengthAdjust="spacing" textLength="48.9595" x="425.5957" y="368.1528">policies</text></g><g class="message" data-entity-1="part3" data-entity-2="part1" id="msg6"><polygon fill="#181818" points="67.0972,398.3516,57.0972,402.3516,67.0972,406.3516,63.0972,402.3516" style="stroke:#181818;stroke-width:1;"/><line style="stroke:#181818;stroke-width:1;stroke-dasharray:2,2;" x1="61.0972" x2="397.5957" y1="402.3516" y2="402.3516"/><text fill="#000000" font-family="sans-serif" font-size="13" lengthAdjust="spacing" textLength="236.3042" x="73.0972" y="397.2856">get compliance state for Foundation</text></g><g class="message" data-entity-1="part1" data-entity-2="part3" id="msg7"><polygon fill="#181818" points="386.5957,427.4844,396.5957,431.4844,386.5957,435.4844,390.5957,431.4844" style="stroke:#181818;stroke-width:1;"/><line style="stroke:#181818;stroke-width:1;stroke-dasharray:2,2;" x1="56.0972" x2="392.5957" y1="431.4844" y2="431.4844"/><text fill="#000000" font-family="sans-serif" font-size="13" lengthAdjust="spacing" textLength="149.9443" x="63.0972" y="426.4185">compliant/uncompliant</text></g><g class="message" data-entity-1="part3" data-entity-2="part3" id="msg8"><line style="stroke:#181818;stroke-width:1;stroke-dasharray:2,2;" x1="408.5957" x2="450.5957" y1="460.6172" y2="460.6172"/><line style="stroke:#181818;stroke-width:1;stroke-dasharray:2,2;" x1="450.5957" x2="450.5957" y1="460.6172" y2="473.6172"/><line style="stroke:#181818;stroke-width:1;stroke-dasharray:2,2;" x1="409.5957" x2="450.5957" y1="473.6172" y2="473.6172"/><polygon fill="#181818" points="419.5957,469.6172,409.5957,473.6172,419.5957,477.6172,415.5957,473.6172" style="stroke:#181818;stroke-width:1;"/><text fill="#000000" font-family="sans-serif" font-size="13" lengthAdjust="spacing" textLength="194.0859" x="415.5957" y="455.5513">create evidence for control ID</text></g><g class="message" data-entity-1="part3" data-entity-2="part4" id="msg9"><polygon fill="#181818" points="619.6816,498.75,629.6816,502.75,619.6816,506.75,623.6816,502.75" style="stroke:#181818;stroke-width:1;"/><line style="stroke:#181818;stroke-width:1;stroke-dasharray:2,2;" x1="408.5957" x2="625.6816" y1="502.75" y2="502.75"/><text fill="#000000" font-family="sans-serif" font-size="13" lengthAdjust="spacing" textLength="96.2368" x="415.5957" y="497.6841">store evidence</text></g><g class="message" data-entity-1="part3" data-entity-2="part2" id="msg10"><polygon fill="#181818" points="146.0649,534.8828,136.0649,538.8828,146.0649,542.8828,142.0649,538.8828" style="stroke:#181818;stroke-width:1;"/><line style="stroke:#181818;stroke-width:1;stroke-dasharray:2,2;" x1="140.0649" x2="402.5957" y1="538.8828" y2="538.8828"/><text fill="#000000" font-family="sans-serif" font-size="13" lengthAdjust="spacing" textLength="185.7388" x="152.0649" y="533.8169">created evaluation snapshot</text></g><g class="message" data-entity-1="part2" data-entity-2="part3" id="msg11"><polygon fill="#181818" points="386.5957,564.0156,396.5957,568.0156,386.5957,572.0156,390.5957,568.0156" style="stroke:#181818;stroke-width:1;"/><line style="stroke:#181818;stroke-width:1;stroke-dasharray:2,2;" x1="135.0649" x2="392.5957" y1="568.0156" y2="568.0156"/><text fill="#000000" font-family="sans-serif" font-size="13" lengthAdjust="spacing" textLength="244.5308" x="142.0649" y="562.9497">get compliance for controls of project</text></g><g class="message" data-entity-1="part3" data-entity-2="part3" id="msg12"><line style="stroke:#181818;stroke-width:1;stroke-dasharray:2,2;" x1="408.5957" x2="450.5957" y1="597.1484" y2="597.1484"/><line style="stroke:#181818;stroke-width:1;stroke-dasharray:2,2;" x1="450.5957" x2="450.5957" y1="597.1484" y2="610.1484"/><line style="stroke:#181818;stroke-width:1;stroke-dasharray:2,2;" x1="409.5957" x2="450.5957" y1="610.1484" y2="610.1484"/><polygon fill="#181818" points="419.5957,606.1484,409.5957,610.1484,419.5957,614.1484,415.5957,610.1484" style="stroke:#181818;stroke-width:1;"/><text fill="#000000" font-family="sans-serif" font-size="13" lengthAdjust="spacing" textLength="170.8726" x="415.5957" y="592.0825">aggregate latest evidence</text></g><g class="message" data-entity-1="part3" data-entity-2="part2" id="msg13"><polygon fill="#181818" points="146.0649,635.2813,136.0649,639.2813,146.0649,643.2813,142.0649,639.2813" style="stroke:#181818;stroke-width:1;"/><line style="stroke:#181818;stroke-width:1;stroke-dasharray:2,2;" x1="140.0649" x2="402.5957" y1="639.2813" y2="639.2813"/><text fill="#000000" font-family="sans-serif" font-size="13" lengthAdjust="spacing" textLength="115.7876" x="152.0649" y="634.2153">compliance result</text></g><?plantuml-src TPDDRzmW48Rl_8hHdjB3gkqbXvMsKhLfeqYH4YaVXygN2HwxL0GGu9Noxpk0MUDDSh4nFFFEEyFOeOzAAeScmkQWxTHtvjxRe-h9T-Rd_Sq6C81C1yArB4F_ICREF90_AacPSsLpJJvwb8GlIglujiPZEbd3lr9c8saDqhmhK4RhsQXzTLfXvkw6WJ5VVFA-w37Y2mQ2pRKzaZS5koAfWhA6XLcYoFRptjf26tMmPb3Zv36MqCQJp4T2xFVmJ5uDRpbxSGKN3z8w0Zl0qm6-NS8Mdj6h9Fzz1omQlTLRIVnMyWlizqBaNi1s-wCs4NPmJH5k_m1AQISElRaAdM79t_pLPqUf7-g8aUPMBYArD5OPMQLM3mEthubV0lAgf9J5NyatUFjw2XVQMbVzf_D6eFHZpkUivdvIIFawimYAcJfbPBwohLQQjrcgwMg8gTIp4WhR2jQ8-7Kof_LvgOdpbFJgS6NXnkeIS29sR867Pvb7CltxcwlAFNEefsmJWa4N_jeeUZgxj7hVhRMpmXjd8GrL_Sy-lVwgW-FeQKo4vaU8Y_EFvgt9w2bC-htP_m00?></g></svg>